<?xml version="1.0" encoding="UTF-8" standalone="no"?> <svg width="64" height="64" viewBox="0 0 64 64" fill="none" xmlns="http://www.w3.org/2000/svg">
<path d="M52.3 41C51.7 41 51.1 41.1 50.6 41.3C50.8 40.2 51 39.1 51 38C51 33.3 49.3 28.6 46.3 25L41.7 19.5C42.5 18.9 43 18 43 17C43 16.3 42.7 15.6 42.3 15.1L43.3 14.1C45.7 11.7 46.6 8.29999 45.8 5.09999C45.5 4.09999 44.8 3.29999 43.7 2.99999C42.7 2.69999 41.6 2.99999 40.8 3.79999L40.6 3.99999C40.2 4.39999 39.6 4.39999 39.3 3.99999L38.3 2.89999C37.7 2.29999 36.9 1.89999 36 1.99999C35.2 2.09999 34.4 2.49999 33.9 3.19999L33.6 3.59999C33.4 3.79999 33.1 3.99999 32.9 3.99999C32.6 3.99999 32.4 3.89999 32.2 3.69999C31.4 2.89999 30.4 2.69999 29.3 2.89999C28.3 3.19999 27.5 3.99999 27.2 4.99999C26.4 8.19999 27.4 11.7 29.7 14L30.2 14.5C29.5 15.2 29 16 29 17C29 18 29.5 18.9 30.3 19.5L29.5 20.5C28.9 18.4 27.8 16.5 26.2 14.9C21.1 9.79999 12.9 9.79999 7.8 14.9C2.7 20 2.7 28.2 7.8 33.3C10.3 35.8 13.7 37.1 17 37.1C18.4 37.1 19.8 36.9 21.1 36.4C21.1 37 21 37.5 21 38.1C21 38.8 21.1 39.4 21.2 40.1H17V39.1C17 38.5 16.6 38.1 16 38.1H3C2.4 38.1 2 38.5 2 39.1V61.1C2 61.7 2.4 62.1 3 62.1H16C16.6 62.1 17 61.7 17 61.1V60.1H22.2C22.8 60.1 23.2 59.7 23.2 59.1V58.1H41C42.8 58.1 44.4 57.4 45.7 56.3L54.5 48.2C56.1 46.7 56.4 44.2 55 42.6C54.4 41.6 53.4 41.1 52.3 41ZM10 58C8.3 58 7 56.7 7 55C7 53.3 8.3 52 10 52C11.7 52 13 53.3 13 55C13 56.7 11.7 58 10 58ZM32 16H40C40.6 16 41 16.4 41 17C41 17.6 40.6 18 40 18H32C31.4 18 31 17.6 31 17C31 16.4 31.4 16 32 16ZM36 33C37.9 33 39.5 34.6 39.5 36.5C39.5 38.1 38.4 39.4 37 39.8V41C37 41.6 36.6 42 36 42C35.4 42 35 41.6 35 41V39.8C33.6 39.4 32.5 38 32.5 36.5C32.5 35.9 32.9 35.5 33.5 35.5C34.1 35.5 34.5 35.9 34.5 36.5C34.5 37.3 35.2 38 36 38C36.8 38 37.5 37.3 37.5 36.5C37.5 35.7 36.8 35 36 35C34.1 35 32.5 33.4 32.5 31.5C32.5 29.9 33.6 28.6 35 28.2V27C35 26.4 35.4 26 36 26C36.6 26 37 26.4 37 27V28.2C38.4 28.6 39.5 30 39.5 31.5C39.5 32.1 39.1 32.5 38.5 32.5C37.9 32.5 37.5 32.1 37.5 31.5C37.5 30.7 36.8 30 36 30C35.2 30 34.5 30.7 34.5 31.5C34.5 32.3 35.2 33 36 33ZM21.2 43V57V58H17V42H21.2V43ZM9.2 31.8C4.9 27.5 4.9 20.5 9.2 16.2C11.3 14.1 14.2 13 17 13C19.8 13 22.6 14.1 24.8 16.2C29.1 20.5 29.1 27.5 24.8 31.8C20.5 36.1 13.5 36.1 9.2 31.8ZM53.3 46.6L44.5 54.7C43.6 55.5 42.4 56 41.1 56H23.2V44H27.2L37 45.7C38.1 45.9 38.8 46.9 38.6 48.1V48.2C38.3 49.2 37.4 49.8 36.3 49.6L29.5 48.4C29 48.3 28.4 48.7 28.3 49.2C28.2 49.7 28.6 50.3 29.1 50.4L35.9 51.6C36.1 51.6 36.4 51.7 36.6 51.7C38.1 51.7 39.4 50.9 40.1 49.6L42.4 49.8C43.2 49.9 44.1 49.6 44.7 49L50.6 43.6C51 43.2 51.5 43 52.1 43.1C52.7 43.1 53.2 43.4 53.5 43.8C54.2 44.6 54.1 45.8 53.3 46.6Z" fill="black"/>
<path d="M19.1 26.1C17.9 27.3 17.9 29.2 19.1 30.3C19.7 30.9 20.5 31.2 21.2 31.2C22 31.2 22.7 30.9 23.3 30.3C24.5 29.1 24.5 27.2 23.3 26.1C22.2 25 20.3 25 19.1 26.1ZM22 28.9C21.6 29.3 21 29.3 20.6 28.9C20.2 28.5 20.2 27.9 20.6 27.5C20.8 27.3 21.1 27.2 21.3 27.2C21.6 27.2 21.8 27.3 22 27.5C22.3 27.9 22.3 28.6 22 28.9Z" fill="black"/>
<path d="M23.4 17.6C23 17.2 22.4 17.2 22 17.6L10.6 28.9C10.2 29.3 10.2 29.9 10.6 30.3C10.8 30.5 11.1 30.6 11.3 30.6C11.5 30.6 11.8 30.5 12 30.3L23.3 19C23.8 18.7 23.8 18 23.4 17.6Z" fill="black"/>
<path d="M12.8 22.8C13.6 22.8 14.3 22.5 14.9 21.9C16.1 20.7 16.1 18.8 14.9 17.7C13.7 16.5 11.8 16.5 10.7 17.7C9.5 18.9 9.5 20.8 10.7 21.9C11.2 22.5 12 22.8 12.8 22.8ZM12 19.1C12.2 18.9 12.5 18.8 12.7 18.8C13 18.8 13.2 18.9 13.4 19.1C13.8 19.5 13.8 20.1 13.4 20.5C13 20.9 12.4 20.9 12 20.5C11.7 20.1 11.7 19.4 12 19.1Z" fill="black"/>
<path d="M61.9 15.3C62 14.9 61.9 14.5 61.6 14.2L54.6 8.19998C54.2 7.89998 53.7 7.89998 53.3 8.19998L46.3 14.2C46 14.5 45.9 14.9 46 15.3C46.1 15.7 46.5 16 46.9 16H49.9V25C49.9 25.6 50.3 26 50.9 26H56.9C57.5 26 57.9 25.6 57.9 25V16H60.9C61.4 16 61.8 15.7 61.9 15.3Z" fill="black"/>
<path d="M57 28C56.4 28 56 28.4 56 29V39C56 39.6 56.4 40 57 40C57.6 40 58 39.6 58 39V29C58 28.4 57.6 28 57 28Z" fill="black"/>
<path d="M61 35C60.4 35 60 35.4 60 36V48C60 48.6 60.4 49 61 49C61.6 49 62 48.6 62 48V36C62 35.4 61.6 35 61 35Z" fill="black"/>
<path d="M54 32V29C54 28.4 53.6 28 53 28C52.4 28 52 28.4 52 29V32C52 32.6 52.4 33 53 33C53.6 33 54 32.6 54 32Z" fill="black"/>
</svg>
