<?xml version="1.0" encoding="UTF-8" standalone="no" ?>
<!DOCTYPE svg PUBLIC "-//W3C//DTD SVG 1.1//EN" "http://www.w3.org/Graphics/SVG/1.1/DTD/svg11.dtd">
<svg xmlns="http://www.w3.org/2000/svg" xmlns:xlink="http://www.w3.org/1999/xlink" version="1.1" width="1080" height="1080" viewBox="0 0 1080 1080" xml:space="preserve">
<desc>Created with Fabric.js 5.2.4</desc>
<defs>
</defs>
<g transform="matrix(1 0 0 1 540 540)" id="859a20c8-3de5-4cdc-b0e4-b42dd7636c1f"  >
<rect style="stroke: none; stroke-width: 1; stroke-dasharray: none; stroke-linecap: butt; stroke-dashoffset: 0; stroke-linejoin: miter; stroke-miterlimit: 4; fill: rgb(255,255,255); fill-rule: nonzero; opacity: 1; visibility: hidden;" vector-effect="non-scaling-stroke"  x="-540" y="-540" rx="0" ry="0" width="1080" height="1080" />
</g>
<g transform="matrix(1 0 0 1 540 540)" id="f4a785e1-73c7-4c47-af2f-42578bb532ca"  >
</g>
<g transform="matrix(1.33 0 0 1.33 567.43 429.59)"  >
<path style="stroke: none; stroke-width: 1; stroke-dasharray: none; stroke-linecap: butt; stroke-dashoffset: 0; stroke-linejoin: miter; stroke-miterlimit: 4; fill: rgb(0,0,0); fill-rule: nonzero; opacity: 1;" vector-effect="non-scaling-stroke"  transform=" translate(-350, -286.28)" d="M 300.64 181.57 L 399.351 181.57 C 408.1987 181.57 415.324 190.6052 415.324 201.816 C 415.324 213.058 408.1951 222.101 399.351 222.101 L 300.64 222.101 C 291.7845 222.101 284.667 213.0541 284.667 201.816 C 284.667 190.605 291.792 181.57 300.64 181.57 z M 349.609 47.01999999999998 C 341.92929999999996 47.09031299999998 334.37899999999996 49.24659999999998 327.93699999999995 53.27389999999998 L 128.32699999999994 177.29389999999998 C 118.02199999999993 183.67279999999997 111.73299999999995 194.95389999999998 111.73299999999995 207.07489999999999 L 111.73299999999995 499.5249 C 111.73299999999995 513.8799 123.40099999999995 525.5449 137.76799999999994 525.5449 L 191.58799999999994 525.5449 C 195.02159999999995 525.5449 197.81069999999994 522.7637 197.81069999999994 519.3222 L 197.81069999999994 286.45219999999995 C 197.81069999999994 274.28819999999996 206.92009999999993 264.5181999999999 218.18969999999993 264.5181999999999 L 481.8296999999999 264.5181999999999 C 493.1106999999999 264.5181999999999 502.18169999999986 274.2876999999999 502.18169999999986 286.45219999999995 L 502.18169999999986 519.3222 C 502.18169999999986 522.7636 504.9707999999999 525.5449 508.40439999999984 525.5449 L 562.2633999999998 525.5449 C 576.6223999999999 525.5449 588.2593999999998 513.8769 588.2593999999998 499.5249 L 588.2593999999998 207.0749 C 588.2593999999998 194.9539 582.0015999999998 183.67290000000003 571.6973999999998 177.2939 L 372.09739999999977 53.27390000000001 C 365.09739999999977 48.922300000000014 357.28839999999974 46.91840000000001 349.60939999999977 47.02000000000001 z" stroke-linecap="round" />
</g>
<g transform="matrix(1.33 0 0 1.33 567.45 585.02)"  >
<path style="stroke: none; stroke-width: 1; stroke-dasharray: none; stroke-linecap: butt; stroke-dashoffset: 0; stroke-linejoin: miter; stroke-miterlimit: 4; fill: rgb(0,0,0); fill-rule: nonzero; opacity: 1;" vector-effect="non-scaling-stroke"  transform=" translate(-350.01, -402.86)" d="M 287.52 308.28 C 283.11379999999997 308.37765599999994 278.9262 309.99089999999995 275.758 313.13939999999997 L 260.29699999999997 328.59639999999996 C 253.07429999999997 335.81519999999995 253.98059999999998 348.39739999999995 262.3361 356.75239999999997 L 308.4181 402.83439999999996 L 262.3361 448.91639999999995 C 253.98059999999998 457.27969999999993 253.07049999999998 469.85439999999994 260.29699999999997 477.12339999999995 L 275.758 492.54939999999993 C 282.98069999999996 499.8032999999999 295.55899999999997 498.90099999999995 303.914 490.5337999999999 L 350.004 444.45179999999993 L 396.086 490.5337999999999 C 404.4493 498.9087999999999 417.016 499.8032999999999 424.277 492.54939999999993 L 439.703 477.12339999999995 C 446.95689999999996 469.85779999999994 446.0546 457.27939999999995 437.69129999999996 448.91639999999995 L 391.60929999999996 402.83439999999996 L 437.69129999999996 356.75239999999997 C 446.05459999999994 348.3891 446.95689999999996 335.8144 439.703 328.59639999999996 L 424.277 313.13939999999997 C 417.01529999999997 305.90889999999996 404.441 306.8191 396.086 315.1785 L 350.004 361.2685 L 303.922 315.1865 C 299.2228 310.4873 293.19500000000005 308.1123 287.52000000000004 308.2803 z" stroke-linecap="round" />
</g>
</svg>