<?xml version="1.0" encoding="UTF-8"?>
<svg width="700pt" height="700pt" version="1.1" viewBox="0 0 700 700" xmlns="http://www.w3.org/2000/svg">
 <g>
  <path d="m213.25 317.27c-58.031 15.195-94.57 51.996-106.42 103.69-3.4492 14.789 1.8945 19.105 8.5312 21.148 45.609 14.047 130.03 19.035 163.16 19.035s117.55-4.9883 163.16-19.035c6.6328-2.043 11.977-6.3594 8.5273-21.148-11.848-51.688-48.391-88.488-106.41-103.69l-59.988 50.246c-3.0547 2.5586-7.5039 2.5586-10.559 0z"/>
  <path d="m278.52 98.855c-50.469 0-91.098 41.062-91.098 92.066v6.2266c0 51.004 40.629 92.066 91.098 92.066s91.098-41.062 91.098-92.066v-6.2266c0-51.004-40.629-92.066-91.098-92.066z" fill-rule="evenodd"/>
  <path d="m506.62 164.57c-23.242-0.003907-45.531 9.2266-61.965 25.66-16.434 16.43-25.668 38.719-25.668 61.961 0.003906 2.1406 0.089843 4.2812 0.25391 6.4141l-25.848 21.805v13.441h36.227c7.5039 13.883 18.621 25.484 32.176 33.574 13.555 8.0898 29.039 12.371 44.824 12.387 23.238 0 45.523-9.2344 61.957-25.664 16.43-16.434 25.664-38.719 25.664-61.957 0-23.238-9.2344-45.527-25.664-61.957-16.434-16.434-38.719-25.664-61.957-25.664zm0 36.785c8.1641 0 14.777 6.6172 14.777 14.777 0 8.1641-6.6133 14.777-14.777 14.777s-14.777-6.6133-14.777-14.777c0-8.1602 6.6133-14.777 14.777-14.777zm-21.375 39.203h25.422c4.5156 0 8.1562 3.6406 8.1562 8.1562v34.137h9.1602v20.176h-42.738v-20.176h9.1602v-26.785l-9.1602-4.082z" fill-rule="evenodd"/>
 </g>
</svg>
